<?xml version="1.0" encoding="UTF-8"?>
<svg width="548px" height="484px" viewBox="0 0 548 484" version="1.1" xmlns="http://www.w3.org/2000/svg" xmlns:xlink="http://www.w3.org/1999/xlink">
    <title>Illustration</title>
    <defs>
        <filter x="-7.2%" y="-7.2%" width="114.4%" height="114.5%" filterUnits="objectBoundingBox" id="filter-1">
            <feGaussianBlur stdDeviation="2" in="SourceGraphic"></feGaussianBlur>
        </filter>
        <filter x="-15.4%" y="-15.4%" width="130.7%" height="130.8%" filterUnits="objectBoundingBox" id="filter-2">
            <feGaussianBlur stdDeviation="3" in="SourceGraphic"></feGaussianBlur>
        </filter>
        <path d="M18.522,0 L39.9380798,0 C41.5608366,-2.98095588e-16 42.8894378,1.29037263 42.9368017,2.91243807 L42.9978006,5.0014617 C43.0791376,7.7869967 45.3607132,10.0029234 48.1474355,10.0029234 L123.259601,10.0029234 C126.046324,10.0029234 128.327899,7.7869967 128.409236,5.0014617 L128.470235,2.91243807 C128.517599,1.29037263 129.8462,7.42184798e-16 131.468957,0 L152.885037,0 C163.114455,1.67360005e-15 171.407037,8.29258186 171.407037,18.522 L171.407037,344.63277 C171.407037,354.862188 163.114455,363.15477 152.885037,363.15477 L18.522,363.15477 C8.29258186,363.15477 8.35816978e-15,354.862188 0,344.63277 L0,18.522 C-1.25274242e-15,8.29258186 8.29258186,2.31953957e-14 18.522,0 Z" id="path-3"></path>
        <linearGradient x1="50%" y1="81.1767625%" x2="50%" y2="-34.5130789%" id="linearGradient-5">
            <stop stop-color="#FF8C19" offset="0%"></stop>
            <stop stop-color="#FFC967" offset="100%"></stop>
        </linearGradient>
        <linearGradient x1="62.1100647%" y1="31.3809088%" x2="62.1100647%" y2="-27.4779882%" id="linearGradient-6">
            <stop stop-color="#F8FDFF" offset="0%"></stop>
            <stop stop-color="#AAD4FF" offset="100%"></stop>
        </linearGradient>
        <path d="M19.7480315,3.57847396 L19.7480315,17.8923698 C19.7480315,19.4132212 18.5811024,20.5762253 17.0551181,20.5762253 L12.5669291,20.5762253 C12.0283465,20.5762253 11.6692913,20.2183779 11.6692913,19.6816068 C11.6692913,19.1448357 12.0283465,18.7869883 12.5669291,18.7869883 L17.0551181,18.7869883 C17.5937008,18.7869883 17.9527559,18.4291409 17.9527559,17.8923698 L17.9527559,3.57847396 C17.9527559,3.04170287 17.5937008,2.68385547 17.0551181,2.68385547 L12.5669291,2.68385547 C12.0283465,2.68385547 11.6692913,2.32600807 11.6692913,1.78923698 C11.6692913,1.25246589 12.0283465,0.89461849 12.5669291,0.89461849 L17.0551181,0.89461849 C18.5811024,0.89461849 19.7480315,2.05762253 19.7480315,3.57847396 Z M14.2724409,11.0932693 C14.3622047,10.9143456 14.3622047,10.64596 14.2724409,10.3775745 C14.1826772,10.2881126 14.1826772,10.1986508 14.0929134,10.1091889 L10.5023622,6.53071498 C10.1433071,6.17286758 9.60472441,6.17286758 9.24566929,6.53071498 C8.88661417,6.88856237 8.88661417,7.42533346 9.24566929,7.78318086 L11.3102362,9.84080339 L2.69291339,9.84080339 C2.15433071,9.84080339 1.79527559,10.1986508 1.79527559,10.7354219 C1.79527559,11.272193 2.15433071,11.6300404 2.69291339,11.6300404 L11.3102362,11.6300404 L9.24566929,13.6876629 C8.88661417,14.0455103 8.88661417,14.5822814 9.24566929,14.9401288 C9.42519685,15.1190525 9.69448819,15.2085143 9.87401575,15.2085143 C10.0535433,15.2085143 10.3228346,15.1190525 10.5023622,14.9401288 L14.0929134,11.3616548 C14.1826772,11.272193 14.2724409,11.1827311 14.2724409,11.0932693 Z" id="path-7"></path>
        <path d="M19.8976378,10.4372157 L18.8503937,10.4372157 L18.8503937,7.306051 C18.8503937,3.86176981 16.0228346,1.04372157 12.5669291,1.04372157 C9.11102362,1.04372157 6.28346457,3.86176981 6.28346457,7.306051 L6.28346457,10.4372157 L5.23622047,10.4372157 C3.45590551,10.4372157 2.09448819,11.7940538 2.09448819,13.5683804 L2.09448819,20.8744314 C2.09448819,22.6487581 3.45590551,24.0055961 5.23622047,24.0055961 L19.8976378,24.0055961 C21.6779528,24.0055961 23.0393701,22.6487581 23.0393701,20.8744314 L23.0393701,13.5683804 C23.0393701,11.7940538 21.6779528,10.4372157 19.8976378,10.4372157 Z M8.37795276,7.306051 C8.37795276,5.00986354 10.2629921,3.13116471 12.5669291,3.13116471 C14.8708661,3.13116471 16.7559055,5.00986354 16.7559055,7.306051 L16.7559055,10.4372157 L8.37795276,10.4372157 L8.37795276,7.306051 Z M20.9448819,20.8744314 C20.9448819,21.5006644 20.5259843,21.918153 19.8976378,21.918153 L5.23622047,21.918153 C4.60787402,21.918153 4.18897638,21.5006644 4.18897638,20.8744314 L4.18897638,13.5683804 C4.18897638,12.9421475 4.60787402,12.5246589 5.23622047,12.5246589 L19.8976378,12.5246589 C20.5259843,12.5246589 20.9448819,12.9421475 20.9448819,13.5683804 L20.9448819,20.8744314 Z" id="path-9"></path>
        <path d="M6,0 L56.4825295,0 C59.796238,7.33259634e-15 62.4825295,2.6862915 62.4825295,6 L62.4825295,45.8333304 C62.4825295,49.1470389 59.796238,51.8333304 56.4825295,51.8333304 L6,51.8333304 C2.6862915,51.8333304 3.3228311e-15,49.1470389 0,45.8333304 L0,6 C-1.29399067e-15,2.6862915 2.6862915,-2.79460044e-16 6,0 Z" id="path-11"></path>
        <path d="M10.0399658,1.03381885e-13 L99.7517777,1.03381885e-13 C105.259055,1.04146571e-13 109.729732,4.45288042 109.751698,9.96011408 L110.223242,128.182328 C110.24527,133.705132 105.786011,138.200106 100.263208,138.222135 C100.249912,138.222188 100.236617,138.222214 100.223322,138.222214 L10.5115097,138.222214 C5.00423228,138.222214 0.533555571,133.769334 0.511589287,128.2621 L0.0400453296,10.0398859 C0.0180169429,4.51708236 4.4772763,0.0221079313 10.0000799,7.95446568e-05 C10.0133751,2.65149384e-05 10.0266704,1.08713397e-13 10.0399658,1.03381885e-13 Z" id="path-13"></path>
        <filter x="-34.9%" y="-27.1%" width="184.3%" height="167.3%" filterUnits="objectBoundingBox" id="filter-14">
            <feOffset dx="8" dy="9" in="SourceAlpha" result="shadowOffsetOuter1"></feOffset>
            <feGaussianBlur stdDeviation="14" in="shadowOffsetOuter1" result="shadowBlurOuter1"></feGaussianBlur>
            <feColorMatrix values="0 0 0 0 0.0862745098   0 0 0 0 0.11372549   0 0 0 0 0.192156863  0 0 0 0.7 0" type="matrix" in="shadowBlurOuter1"></feColorMatrix>
        </filter>
        <ellipse id="path-15" cx="21.2026773" cy="21.4496688" rx="21.2026773" ry="21.4496688"></ellipse>
        <filter x="-90.8%" y="-87.4%" width="319.3%" height="316.8%" filterUnits="objectBoundingBox" id="filter-16">
            <feOffset dx="8" dy="9" in="SourceAlpha" result="shadowOffsetOuter1"></feOffset>
            <feGaussianBlur stdDeviation="14" in="shadowOffsetOuter1" result="shadowBlurOuter1"></feGaussianBlur>
            <feColorMatrix values="0 0 0 0 0.0755212756   0 0 0 0 0.582569014   0 0 0 0 0.878793025  0 0 0 0.229458042 0" type="matrix" in="shadowBlurOuter1" result="shadowMatrixOuter1"></feColorMatrix>
            <feOffset dx="0" dy="2" in="SourceAlpha" result="shadowOffsetOuter2"></feOffset>
            <feGaussianBlur stdDeviation="7.5" in="shadowOffsetOuter2" result="shadowBlurOuter2"></feGaussianBlur>
            <feColorMatrix values="0 0 0 0 0.50398247   0 0 0 0 0.700178215   0 0 0 0 1  0 0 0 0.233828671 0" type="matrix" in="shadowBlurOuter2" result="shadowMatrixOuter2"></feColorMatrix>
            <feMerge>
                <feMergeNode in="shadowMatrixOuter1"></feMergeNode>
                <feMergeNode in="shadowMatrixOuter2"></feMergeNode>
            </feMerge>
        </filter>
        <linearGradient x1="47.2355153%" y1="-28.1859254%" x2="50%" y2="91.0504812%" id="linearGradient-17">
            <stop stop-color="#FDC6C6" offset="0%"></stop>
            <stop stop-color="#FFCCA1" offset="100%"></stop>
        </linearGradient>
        <linearGradient x1="45.7271708%" y1="-28.1859254%" x2="50%" y2="91.0504812%" id="linearGradient-18">
            <stop stop-color="#FDC6C6" offset="0%"></stop>
            <stop stop-color="#FAB2B2" offset="100%"></stop>
        </linearGradient>
        <linearGradient x1="44.5351564%" y1="-28.1859254%" x2="50%" y2="91.0504812%" id="linearGradient-19">
            <stop stop-color="#FDC6C6" offset="0%"></stop>
            <stop stop-color="#FAB2B2" offset="100%"></stop>
        </linearGradient>
        <linearGradient x1="44.0512315%" y1="-28.1859254%" x2="50%" y2="91.0504812%" id="linearGradient-20">
            <stop stop-color="#FDC6C6" offset="0%"></stop>
            <stop stop-color="#FFCCA1" offset="100%"></stop>
        </linearGradient>
        <linearGradient x1="47.8300172%" y1="-28.1859254%" x2="50%" y2="91.0504812%" id="linearGradient-21">
            <stop stop-color="#FDC6C6" offset="0%"></stop>
            <stop stop-color="#FFCCA1" offset="100%"></stop>
        </linearGradient>
    </defs>
    <g id="ðŸ“-Pages-New" stroke="none" stroke-width="1" fill="none" fill-rule="evenodd">
        <g id="Not-Authorized-Dark" transform="translate(-444.000000, -307.000000)">
            <g id="Illustration" transform="translate(450.000000, 307.000000)">
                <g id="Shape">
                    <path d="M395.055743,0 C476.210815,0 542,65.5523654 542,146.415306 C542,227.278247 476.210815,292.830612 395.055743,292.830612 C313.900671,292.830612 248.111486,227.278247 248.111486,146.415306 C248.111486,65.5523654 313.900671,0 395.055743,0 Z M395.055743,54.7346939 C344.239016,54.7346939 303.043919,95.7815021 303.043919,146.415306 C303.043919,197.04911 344.239016,238.095918 395.055743,238.095918 C445.872471,238.095918 487.067568,197.04911 487.067568,146.415306 C487.067568,95.7815021 445.872471,54.7346939 395.055743,54.7346939 Z" id="Oval" fill="#7367F0" fill-rule="nonzero" opacity="0.052827381"></path>
                    <path d="M41.6570946,190.659184 C64.6636727,190.659184 83.3141892,209.242565 83.3141892,232.166327 C83.3141892,255.090089 64.6636727,273.673469 41.6570946,273.673469 C18.6505165,273.673469 0,255.090089 0,232.166327 C0,209.242565 18.6505165,190.659184 41.6570946,190.659184 Z M41.6570946,218.026531 C33.8196889,218.026531 27.4662162,224.357133 27.4662162,232.166327 C27.4662162,239.97552 33.8196889,246.306122 41.6570946,246.306122 C49.4945003,246.306122 55.847973,239.97552 55.847973,232.166327 C55.847973,224.357133 49.4945003,218.026531 41.6570946,218.026531 Z" id="Oval" fill="#8BF78F" fill-rule="nonzero" opacity="0.141020275" filter="url(#filter-1)"></path>
                    <ellipse id="Oval" fill-opacity="0.0612161276" fill="#7367F0" cx="170.290541" cy="364.897959" rx="82.3986486" ry="82.1020408"></ellipse>
                    <ellipse id="Oval" fill="#CEF5FF" opacity="0.141020275" cx="142.824324" cy="77.5408163" rx="29.2972973" ry="29.1918367"></ellipse>
                    <ellipse id="Oval" fill-opacity="0.135926573" fill="#7367F0" filter="url(#filter-2)" cx="487.983108" cy="364.897959" rx="29.2972973" ry="29.1918367"></ellipse>
                </g>
                <g id="File-Organizer" transform="translate(114.000000, 101.000000)">
                    <g id="Phone3" transform="translate(56.050504, 0.000000)">
                        <path d="M25.137,0 L160.250043,0 C174.132825,1.00248804e-15 185.387043,11.2542182 185.387043,25.137 L185.387043,355.637465 C185.387043,369.520247 174.132825,380.774465 160.250043,380.774465 L25.137,380.774465 C11.2542182,380.774465 6.4105257e-15,369.520247 -2.61155926e-14,355.637465 L-2.61155926e-14,25.137 C-2.78157431e-14,11.2542182 11.2542182,2.55022564e-15 25.137,0 Z" id="Rectangle" fill="#C4E3E7"></path>
                        <g id="Group-48" transform="translate(6.686090, 7.673152)">
                            <mask id="mask-4" fill="white">
                                <use xlink:href="#path-3"></use>
                            </mask>
                            <use id="Rectangle" fill="#161D31" xlink:href="#path-3"></use>
                            <ellipse id="Oval" fill="#7367F0" opacity="0.0987723214" mask="url(#mask-4)" cx="64.9850467" cy="221.030052" rx="14.7017717" ry="14.5497068"></ellipse>
                            <path d="M152.965961,206.480345 C192.168233,206.480345 223.947953,237.931358 223.947953,276.728148 C223.947953,315.524938 192.168233,346.975951 152.965961,346.975951 C113.76369,346.975951 81.9839702,315.524938 81.9839702,276.728148 C81.9839702,237.931358 113.76369,206.480345 152.965961,206.480345 Z M152.965961,237.171133 C130.890896,237.171133 112.99552,254.881412 112.99552,276.728148 C112.99552,298.574884 130.890896,316.285163 152.965961,316.285163 C175.041027,316.285163 192.936403,298.574884 192.936403,276.728148 C192.936403,254.881412 175.041027,237.171133 152.965961,237.171133 Z" id="Oval" fill="#C8F5D0" opacity="0.141020275" mask="url(#mask-4)"></path>
                            <path d="M25.6538543,62.3473122 L147.043263,62.3473122 C149.679938,62.3473122 151.817386,64.4847597 151.817386,67.1214348 C151.817386,69.7581098 149.679938,71.8955573 147.043263,71.8955573 L25.6538543,71.8955573 C23.0171792,71.8955573 20.8797318,69.7581098 20.8797318,67.1214348 C20.8797318,64.4847597 23.0171792,62.3473122 25.6538543,62.3473122 Z" id="Rectangle" fill-opacity="0.642072771" fill="#68DE9E" mask="url(#mask-4)"></path>
                        </g>
                        <path d="M102.742204,6.6661577 C104.328057,6.6661577 105.613644,7.88755625 105.613644,9.39422772 C105.613644,10.8674176 104.384559,12.0678725 102.847472,12.1204985 L102.742204,12.1222977 L70.2732563,12.1222977 C68.6874039,12.1222977 67.4018166,10.9008992 67.4018166,9.39422772 C67.4018166,7.92103784 68.6309016,6.72058295 70.1679885,6.66795691 L70.2732563,6.6661577 L102.742204,6.6661577 Z" id="Path" fill="#56CDD9" fill-rule="nonzero"></path>
                        <path d="M114.378571,6.21147936 C115.964424,6.21147936 117.250011,7.48376952 117.250011,9.05321897 C117.250011,10.5877918 116.020926,11.8382656 114.483839,11.8930844 L114.378571,11.8949586 L114.227964,11.8949586 C112.642111,11.8949586 111.356524,10.6226684 111.356524,9.05321897 C111.356524,7.51864617 112.585609,6.26817234 114.122696,6.21335354 L114.227964,6.21147936 L114.378571,6.21147936 Z" id="Path" fill="#56CDD9" fill-rule="nonzero"></path>
                    </g>
                    <g id="Group-37" transform="translate(67.995694, 128.219291)">
                        <path d="M4,0.641642069 L9.4738864,0.641642069 C11.4961738,0.641642069 13.1355616,2.28102989 13.1355616,4.30331725 L13.1355616,6.74571562 C13.1355616,7.41910361 13.6814504,7.96499242 14.3548384,7.96499242 L55.6584015,7.96499242 C57.8675405,7.96499242 59.6584015,9.75585342 59.6584015,11.9649924 L59.6584015,46.5357293 C59.6584015,48.7448683 57.8675405,50.5357293 55.6584015,50.5357293 L4,50.5357293 C1.790861,50.5357293 2.705415e-16,48.7448683 0,46.5357293 L0,4.64164207 C-2.705415e-16,2.43250307 1.790861,0.641642069 4,0.641642069 Z" id="Rectangle" fill="url(#linearGradient-5)"></path>
                        <path d="M15.3421459,4.10650924 L60.7114762,4.10650924 C61.3848642,4.10650924 61.930753,4.65239806 61.930753,5.32578604 C61.930753,5.39076651 61.9255584,5.45564299 61.9152188,5.51979558 L55.1043771,47.7780285 C55.0091449,48.3689018 54.4991331,48.8032957 53.9006346,48.8032957 L8.53130426,48.8032957 C7.85791628,48.8032957 7.31202746,48.2574069 7.31202746,47.5840189 C7.31202746,47.5190385 7.31722208,47.454162 7.32756168,47.3900094 L14.1384034,5.1317765 C14.2336356,4.54090315 14.7436474,4.10650924 15.3421459,4.10650924 Z" id="Rectangle" fill="url(#linearGradient-6)"></path>
                        <path d="M66.6420719,20.2287103 L61.8459796,44.6408265 C61.1088557,48.3927879 57.8197259,51.0985993 53.996041,51.0985993 L4.86231945,51.0985993 C2.65318045,51.0985993 0.862319447,49.3077383 0.862319447,47.0985993 C0.862319447,46.8397391 0.887447526,46.5814902 0.937350173,46.3274857 L5.73344249,21.9153695 C6.47056635,18.1634081 9.75969618,15.4575967 13.583381,15.4575967 L62.7171026,15.4575967 C64.9262416,15.4575967 66.7171026,17.2484577 66.7171026,19.4575967 C66.7171026,19.7164569 66.6919745,19.9747058 66.6420719,20.2287103 Z" id="Rectangle" fill="#FFCC7B"></path>
                    </g>
                    <g id="Group-28" transform="translate(0.000000, 81.842101)">
                        <path d="M6,0 L33.4136531,0 L33.4136531,0 L44.105315,10.9122801 L44.105315,45.8333304 C44.105315,49.1470389 41.4190235,51.8333304 38.105315,51.8333304 L6,51.8333304 C2.6862915,51.8333304 4.05812251e-16,49.1470389 0,45.8333304 L0,6 C4.82366169e-16,2.6862915 2.6862915,1.4968968e-15 6,0 Z" id="Rectangle" fill="#B7B1FB"></path>
                        <g id="Icon" transform="translate(8.976378, 16.565933)">
                            <mask id="mask-8" fill="white">
                                <use xlink:href="#path-7"></use>
                            </mask>
                            <use id="Mask" fill="#000000" fill-rule="nonzero" xlink:href="#path-7"></use>
                            <g id="Group" mask="url(#mask-8)" fill="#FFFFFF">
                                <g id="Icon-Color">
                                    <rect id="ðŸŽ¨-Icon-Color" x="0" y="0" width="21.5433071" height="21.4708438"></rect>
                                </g>
                            </g>
                        </g>
                        <path d="M44.105315,10.9122801 L36.4136531,10.9122801 C34.7567989,10.9122801 33.4136531,9.56913433 33.4136531,7.91228008 L33.4136531,0 L33.4136531,0 L44.105315,10.9122801 Z" id="Path" fill="#7367F0" fill-rule="nonzero" opacity="0.339960007"></path>
                    </g>
                    <g id="Group" transform="translate(19.296075, 216.426888)">
                        <path d="M6,0 L56.4825295,0 C59.796238,-6.08718376e-16 62.4825295,2.6862915 62.4825295,6 L62.4825295,45.8333304 C62.4825295,49.1470389 59.796238,51.8333304 56.4825295,51.8333304 L6,51.8333304 C2.6862915,51.8333304 4.05812251e-16,49.1470389 0,45.8333304 L0,6 C-4.05812251e-16,2.6862915 2.6862915,6.08718376e-16 6,0 Z" id="Rectangle" fill="#6FD9E6"></path>
                        <g transform="translate(17.952756, 13.419277)" id="Icon">
                            <mask id="mask-10" fill="white">
                                <use xlink:href="#path-9"></use>
                            </mask>
                            <use id="Mask" fill="#000000" fill-rule="nonzero" xlink:href="#path-9"></use>
                            <g id="Group" mask="url(#mask-10)" fill="#FFFFFF">
                                <g id="Icon-Color">
                                    <rect id="ðŸŽ¨-Icon-Color" x="0" y="0" width="25.1338583" height="25.0493177"></rect>
                                </g>
                            </g>
                        </g>
                    </g>
                    <g id="Group-34" transform="translate(73.508858, 50.923974)">
                        <mask id="mask-12" fill="white">
                            <use xlink:href="#path-11"></use>
                        </mask>
                        <use id="Rectangle" fill="#BAF3C4" fill-rule="nonzero" xlink:href="#path-11"></use>
                        <ellipse id="Oval" fill="#FFFFFF" mask="url(#mask-12)" cx="27.5658219" cy="19.0964901" rx="8.26974656" ry="8.18421006"></ellipse>
                        <ellipse id="Oval" fill="#28C76F" mask="url(#mask-12)" cx="8.72917692" cy="61.3815754" rx="29.8629737" ry="29.5540919"></ellipse>
                        <ellipse id="Oval" fill="#69E09E" mask="url(#mask-12)" cx="62.9419599" cy="54.5614004" rx="35.376138" ry="34.5555536"></ellipse>
                    </g>
                    <g id="Group-23" transform="translate(156.206324, 30.008770)">
                        <g id="Rectangle">
                            <use fill="black" fill-opacity="1" filter="url(#filter-14)" xlink:href="#path-13"></use>
                            <use fill="#313A53" fill-rule="evenodd" xlink:href="#path-13"></use>
                        </g>
                        <path d="M37.6447777,85.4795273 L72.6185097,85.4795273 C74.1251812,85.4795273 75.3465797,86.7009258 75.3465797,88.2075973 C75.3465797,89.7142688 74.1251812,90.9356673 72.6185097,90.9356673 L37.6447777,90.9356673 C36.1381062,90.9356673 34.9167077,89.7142688 34.9167077,88.2075973 C34.9167077,86.7009258 36.1381062,85.4795273 37.6447777,85.4795273 Z" id="Rectangle" fill="#7367F0" fill-rule="nonzero" opacity="0.339960007"></path>
                        <path d="M28.4561704,100.029234 L81.807117,100.029234 C83.3137885,100.029234 84.535187,101.250633 84.535187,102.757304 C84.535187,104.263976 83.3137885,105.485374 81.807117,105.485374 L28.4561704,105.485374 C26.9494989,105.485374 25.7281004,104.263976 25.7281004,102.757304 C25.7281004,101.250633 26.9494989,100.029234 28.4561704,100.029234 Z" id="Rectangle" fill="#7367F0" fill-rule="nonzero" opacity="0.339960007"></path>
                        <g id="Icon8" transform="translate(33.997847, 22.733917)">
                            <g id="Oval">
                                <use fill="black" fill-opacity="1" filter="url(#filter-16)" xlink:href="#path-15"></use>
                                <use fill="#FFFFFF" fill-rule="evenodd" xlink:href="#path-15"></use>
                            </g>
                            <g id="Group-70" transform="translate(12.864050, 10.002923)" fill="#7367F0">
                                <path d="M13.0037032,12.2551564 C15.4741375,12.2551564 17.4768202,14.2578391 17.4768202,16.7282734 L17.4768202,19.8896595 C17.4768202,20.6141084 16.8895383,21.2013903 16.1650894,21.2013903 L1.31173083,21.2013903 C0.587281895,21.2013903 4.04749508e-12,20.6141084 4.04654088e-12,19.8896595 L4.04654088e-12,16.7282734 C4.04623834e-12,14.2578391 2.00268267,12.2551564 4.47311693,12.2551564 L13.0037032,12.2551564 Z M8.73841009,9.7255537e-13 C11.7339146,9.7255537e-13 14.1622508,2.4032192 14.1622508,5.36774032 C14.1622508,8.33226143 11.7339146,10.7354806 8.73841009,10.7354806 C5.74290556,10.7354806 3.31456934,8.33226143 3.31456934,5.36774032 C3.31456934,2.4032192 5.74290556,9.7255537e-13 8.73841009,9.7255537e-13 Z" id="Combined-Shape"></path>
                            </g>
                        </g>
                    </g>
                    <g id="Wom3.5" transform="translate(211.337968, 63.654967)">
                        <g id="RArm" transform="translate(91.539791, 52.160909)">
                            <path d="M13.6289939,70.1146735 C13.6289939,70.1146735 3.86971285,80.6753106 4.54818174,81.6264965 C5.22731694,82.5839422 10.2840645,80.0272058 10.2840645,80.0272058 C10.2840645,80.0272058 4.35987095,90.9040736 5.72812671,91.6483196 C7.09571287,92.3925659 13.8020327,90.4109072 15.7744989,88.131209 C17.7476348,85.8515103 20.4106387,74.712876 20.4106387,74.712876 L34.5705104,45.0025397 L23.0564659,41.6924246 L13.6289939,70.1146735 Z" id="Path" fill="url(#linearGradient-17)" transform="translate(19.542444, 66.749982) rotate(2.866471) translate(-19.542444, -66.749982) "></path>
                            <path d="M2.97505384,16.2714268 C7.29008843,22.9069101 21.8156326,41.8173195 21.8156326,41.8173195 C21.8156326,41.8173195 21.4628265,43.0749065 20.7572142,45.5900804 L34.1060147,54.6466938 C36.634156,47.7348505 38.0079136,43.7927224 38.2272875,42.8203098 C39.3125284,38.0088894 17.3821422,7.30408479 12.4718187,2.86742061 C4.7400848,-4.11876176 -3.61958089,6.13109106 2.97505384,16.2714268 Z" id="Path" fill="#FD8715"></path>
                            <path d="M25.2875084,46.8373112 C25.453482,46.5168862 24.3033926,44.8209242 21.8372402,41.7494251 L21.2104678,43.9899718 C23.7625213,46.208623 25.1215348,47.1577361 25.2875084,46.8373112 Z" id="Path" fill-opacity="0.159855769" fill="#000000"></path>
                            <polygon id="Path-70" fill="#FFEDC2" points="20.6743664 44.324215 34.8562007 55.0420896 31.6960365 61.9737231 19.2960753 48.324134"></polygon>
                        </g>
                        <g id="RLeg" transform="translate(67.686517, 111.406562)">
                            <polygon id="Path" fill="url(#linearGradient-18)" points="35.5755236 180.145813 34.7878518 193.42821 44.8854493 193.688442 42.9875356 180.145813"></polygon>
                            <path d="M35.8224812,185.378486 C35.8224812,185.378486 36.1058608,193.377256 34.4321499,196.169926 C32.7478122,198.962596 32.2373769,201.12765 32.1629897,202.797733 C32.0832892,204.587997 32.2542026,206.210007 32.2542026,206.210007 L48.9672381,206.210007 C48.9672381,206.210007 49.385575,197.794607 48.2786233,196.207316 C47.1716716,194.620916 46.4455113,194.593318 46.4455113,193.191197 C46.4366557,191.789075 46.1975542,185.43101 46.1975542,185.43101 L35.8224812,185.378486 Z" id="Path" fill="#391B0B" transform="translate(40.593284, 195.794247) scale(-1, 1) translate(-40.593284, -195.794247) "></path>
                            <path d="M0,2.81802884 L26.1945299,-1.03381885e-13 L26.579667,0.353945051 C28.4466001,2.11439493 36.5598985,10.2901674 38.8911393,21.4650623 C43.2923386,42.5623858 37.4019388,81.5277509 37.5322304,90.0720449 C37.6565996,98.6163389 41.73639,103.771697 43.4317829,115.852626 C45.1271757,127.933556 45.2872714,181.924955 45.2872714,181.924955 C40.7922119,184.561272 36.836983,184.749999 31.4772612,181.766705 L0,2.81802884 Z" id="Path" fill="#4E3319"></path>
                            <path d="M23.3985442,135.836879 L7.01856552e-14,2.81802884 L14.5642247,1.25106769 C15.2131414,47.4615122 24.2704377,109.925442 23.3985442,135.836879 Z" id="Path" fill-opacity="0.192498907" fill="#FFFFFF"></path>
                        </g>
                        <g id="LLeg" transform="translate(45.339660, 115.066829)">
                            <path d="M27.7125015,175.088848 L19.1014126,175.22717 C19.4788954,181.12422 18.5639915,185.071554 16.3567009,187.069174 L16.1757744,187.225989 C12.1781918,190.541606 27.599977,189.344772 27.599977,189.344772 L27.7125015,175.088848 Z" id="Path" fill="url(#linearGradient-19)"></path>
                            <path d="M0.603376779,181.984036 L0.85117809,202.542426 L6.9827164,202.546902 L7.03581668,197.481099 C7.03581668,197.481099 8.96975932,202.204056 11.925675,202.477034 C14.8904406,202.750011 28.1004723,202.582645 28.1004723,202.582645 C28.1004723,202.582645 29.1978781,197.839997 22.6222933,195.686608 C17.1529643,193.896592 11.105315,181.984036 11.105315,181.984036 L0.603376779,181.984036 Z" id="Path" fill="#391B0B" transform="translate(14.386288, 192.308729) scale(-1, 1) translate(-14.386288, -192.308729) "></path>
                            <path d="M9.35323345,0.986421099 L38.7673652,0 L38.9871451,0.402695149 C40.4144067,3.08173859 48.2349696,18.7676293 45.8201109,36.5968741 C42.4305118,61.6227651 33.8138938,90.9610043 33.3920299,95.4428262 C32.6398922,103.433432 34.1441677,109.219296 34.7609888,117.472578 C35.37781,125.72586 32.4089207,177.633164 32.4089207,177.633164 C28.0441528,180.231384 22.8502567,180.741299 16.2468425,177.711703 C12.2727315,130.707818 10.2709951,103.48652 10.2416333,96.0478099 C10.1975908,84.8897442 9.35323345,0.986421099 9.35323345,0.986421099 Z" id="Path" fill="#604021"></path>
                            <path d="M15.4057566,28.0549437 L15.2105907,29.9091587 C13.25032,49.4613985 13.2651675,90.9831943 14.0242497,97.3868372 L14.1284167,98.2121761 C14.970341,105.438195 14.9976409,123.783402 14.2103163,153.247796 L13.185484,140.533466 C11.2434216,116.068146 10.2621263,101.239634 10.2416333,96.0478099 L10.2060558,90.6746811 C10.0371629,68.9481128 9.35323345,0.986421099 9.35323345,0.986421099 L15.5565804,0.778612504 C16.2196202,11.5067591 16.1693456,20.5988695 15.4057566,28.0549437 Z" id="Path" fill-opacity="0.192498907" fill="#FFFFFF"></path>
                        </g>
                        <g id="Head" transform="translate(63.280736, 3.062842)">
                            <path d="M2.6282494,20.3181 C-0.991020973,20.7099634 -0.73443091,27.0070435 3.67135553,27.3358239 C4.57185161,33.4062326 7.78327883,36.2984308 11.6985731,36.6330918 L11.4814169,45.8148857 L28.7998957,45.8047282 C28.7998957,45.8047282 23.9230639,39.318399 24.1661493,30.4386554 C24.4092346,21.5583772 24.003012,13.2164435 24.003012,13.2164435 L1.57163853,13.6147222 L2.6282494,20.3181 Z" id="Path" fill="url(#linearGradient-20)"></path>
                            <path d="M29.190395,20.7898907 C24.9750401,19.1401305 21.8611314,26.2431273 18.6357691,31.1799172 C15.4104067,36.116707 7.05402009,35.2779067 5.90231133,31.1799172 C1.54203096,22.2043641 -2.21555031,10.0017529 2.87271906,9.00021607 C3.58894172,-3.97191888 37.8968148,-0.909356673 29.190395,20.7898907 Z" id="Path" fill="#8B5030" transform="translate(15.515520, 17.934408) scale(-1, 1) translate(-15.515520, -17.934408) "></path>
                            <path d="M25.638775,4.09061628 C27.1077001,5.32617756 28.0460091,6.96605512 28.15832,9.00021607 C33.2465894,10.0017529 29.4890081,22.2043641 25.1287278,31.1799172 C24.0576996,34.9908304 16.7560553,35.9831919 13.1444081,32.1332628 C9.85099143,22.3675088 11.2580937,11.4486589 17.9177842,4.09210503 L17.9177842,4.09210503 Z" id="Combined-Shape" fill-opacity="0.199355332" fill="#000000"></path>
                            <ellipse id="Oval" fill="#FB9934" cx="20.7950207" cy="4.09210503" rx="4.13487328" ry="4.09210503"></ellipse>
                        </g>
                        <g id="Body" transform="translate(50.674146, 45.963181)">
                            <path d="M44.8612782,4.69286363 C48.7249977,10.3100561 55.1643912,29.3746025 55.5296119,33.6635135 C55.9410979,38.6107864 50.5819825,46.4916917 50.4938069,53.653579 C50.4154286,60.8164419 54.4910996,82.3830786 53.2664388,84.3976948 C52.0515754,86.412311 17.2165662,95.3317931 14.9435959,95.2839886 C12.6804228,95.2352086 -1.60815973,83.0952674 0.1847436,78.9001829 C1.98744421,74.7050984 10.3543264,64.2798256 9.50196253,58.5637791 C8.65939594,52.8487081 3.76638195,31.7513355 1.33665504,24.5709117 C-1.08327459,17.390488 -0.276352304,9.85182573 4.24019651,6.76209721 C6.47500811,5.23328365 12.438456,0.889913218 23.0582933,0.909356673 C33.6781307,0.929736154 44.5616504,4.25725561 44.8612782,4.69286363 Z" id="Path" fill="#FD8715" transform="translate(27.776073, 48.097236) scale(-1, 1) translate(-27.776073, -48.097236) "></path>
                            <path d="M22.6819211,0.499006162 C22.3839652,2.10936686 22.8871568,2.91454721 24.1914959,2.91454721 C26.1480046,2.91454721 39.2712923,3.3422662 41.0484836,2.57847851 C42.2332778,2.06928672 42.647922,1.37612927 42.2924162,0.499006162 L22.6819211,0.499006162 Z" id="Path-68" fill="#FFF6E1"></path>
                            <path d="M5.08309356,16.8417458 L5.20202109,16.7824233 C12.3576082,13.2473516 16.6557553,13.0912056 18.0964626,16.3139853 C19.9588437,20.4800252 15.1292281,30.4903285 3.60761571,46.3448953 C2.02507996,41.5365185 -0.250978634,36.9519461 0.0225344771,33.6635135 C0.233894719,31.1814384 2.47959204,23.7507679 5.08309356,16.8417458 Z" id="Path" fill-opacity="0.159855769" fill="#000000"></path>
                        </g>
                        <g id="LArm" transform="translate(0.000000, 23.978046)">
                            <path d="M8.024634,27.117016 C8.024634,27.117016 6.73557044,24.3477052 4.70924498,23.5984291 C2.68349534,22.849153 -0.415376475,17.8863212 0.0637092835,16.4451434 C0.542795042,15.0039657 4.73421961,11.0070691 4.73421961,11.0070691 C4.73421961,11.0070691 1.02879069,1.16593255 2.66988975,0.0553679067 C4.11981516,-0.926246266 9.60684424,11.469473 9.60684424,11.469473 C9.60684424,11.469473 12.8326116,11.950623 13.5771523,13.2179732 C15.4531876,16.4127638 14.0350873,23.5984291 14.0350873,23.5984291 L33.0789862,51.1390143 L24.3406732,62.2273901 L8.024634,27.117016 Z" id="Path" fill="url(#linearGradient-21)"></path>
                            <path d="M56.6386106,29.2525439 C50.1979299,34.915051 34.4443804,49.9379092 34.4443804,49.9379092 C34.4443804,49.9379092 33.6641665,48.754782 32.1037388,46.3885276 L20.3224745,58.3279859 C26.2472797,67.0250588 30.1743679,71.4039769 32.1037388,71.4647403 C39.6442456,71.7021037 53.1549278,57.6126611 65.8569463,46.6110811 C77.2457638,36.7466002 68.6443247,18.6973568 56.6386106,29.2525439 Z" id="Path" fill="#FD8715"></path>
                            <path d="M34.4913769,49.9555511 C31.5451983,53.32775 29.9505585,54.8299824 29.7074577,54.4622482 C29.4643569,54.094514 30.5755269,51.8609457 33.0409678,47.7615434 L34.4913769,49.9555511 Z" id="Path" fill-opacity="0.159855769" fill="#000000"></path>
                            <polygon id="Path-69" fill="#FFEDC2" points="33.5141806 47.192719 19.8502494 62.2273901 15.6403785 53.6474861 30.9146411 44.161501"></polygon>
                        </g>
                        <path d="M96.108828,3.89805621 C96.108828,3.89805621 92.2397096,-1.08975352 87.7718099,0.21882674 C83.3039102,1.527407 79.2624478,9.54880869 81.1814156,17.08877 C83.0906916,24.6297079 81.5161637,28.9307368 79.1998339,34.0127157 C72.9777264,47.6834732 94.520284,56.3635886 94.520284,56.3635886 C93.3997059,49.6103181 93.9292206,44.1947424 96.108828,40.1168616 C99.4759356,33.8172575 101.388196,25.7388306 101.388196,20.7952976 C101.388196,12.198636 96.108828,3.89805621 96.108828,3.89805621 Z" id="Path" fill="#8B5030" transform="translate(89.729907, 28.181794) scale(-1, 1) translate(-89.729907, -28.181794) "></path>
                    </g>
                    <g id="Group-39" transform="translate(246.254675, 6.365497)">
                        <path d="M0,6.46233656 C15.5667382,-2.41488423 31.3462827,-1.88933416 47.3029503,6.46233656 L46.2969883,17.5495595 C44.9240101,32.6818558 36.5430797,46.2977024 23.6514751,54.3399654 L23.6514751,54.3399654 L23.6514751,54.3399654 C10.2015184,46.3534616 1.57776984,32.2262697 0.621626872,16.6130903 L0,6.46233656 L0,6.46233656 Z" id="Rectangle" fill="#28C76F"></path>
                        <ellipse id="Oval" fill="#1CA258" cx="23.6514751" cy="24.4707881" rx="12.9008046" ry="12.7673677"></ellipse>
                        <g id="Group-40" transform="translate(13.975872, 14.895262)" fill="#FFFFFF">
                            <path d="M9.49153768,0.505374971 C13.5945669,0.505374971 17.146204,3.24256504 18.1767772,7.10197151 C18.2564191,7.40022372 18.0766735,7.70589968 17.7753042,7.78471788 C17.4739348,7.86353609 17.1650641,7.68564968 17.0854222,7.38739748 C16.1851159,4.01582905 13.0796807,1.62251964 9.49153768,1.62251964 C5.15456765,1.62251964 1.63947725,5.08914444 1.63947725,9.36428818 C1.63947725,11.7774639 2.43892169,13.9468429 4.04798373,15.8925986 C4.245406,16.1313312 4.20989471,16.4832492 3.96866705,16.6786294 C3.7274394,16.8740097 3.37184338,16.8388657 3.17442111,16.6001332 C1.40196932,14.4567986 0.51065685,12.0381258 0.51065685,9.36428818 C0.51065685,4.47128885 4.53201671,0.505374971 9.49153768,0.505374971 Z" id="Path"></path>
                            <path d="M9.96900586,2.90184041 C13.3434862,2.91262378 16.0914924,5.52477611 16.202397,8.82150046 L16.2058447,9.00882574 C16.2117671,10.8516697 16.7341704,11.864629 17.7349508,12.1952925 C18.0309276,12.2930849 18.1924695,12.6098364 18.0957647,12.9027768 C17.9990599,13.1957172 17.6807286,13.3539159 17.3847518,13.2561235 C15.8931375,12.7632857 15.1368573,11.3768125 15.0814921,9.23002029 L15.0782635,9.00523161 C15.0693876,6.24333375 12.7929288,4.02923254 9.9726,4.02024283 C7.43375043,4.01215033 5.27623507,6.33074917 4.97957846,8.9277152 C4.92181849,9.43335266 4.90810695,9.9003363 4.93734909,10.364962 L4.96902591,10.7686173 C5.09386176,12.051354 5.46664115,13.109413 7.22316206,17.6723339 C7.33446378,17.9614628 7.18894975,18.2838408 6.89814738,18.3923852 C6.60734501,18.5009297 6.28137523,18.3545372 6.17007351,18.0654083 L5.23139063,15.6080692 C4.1126352,12.636909 3.9069208,11.828674 3.81798008,10.5196896 L3.81195436,10.4275191 C3.77851153,9.89614888 3.79413956,9.36389367 3.85914933,8.79479066 C4.21554687,5.67484562 6.80525727,2.89178338 9.96900586,2.90184041 Z" id="Path" transform="translate(10.959335, 10.665027) rotate(-19.000000) translate(-10.959335, -10.665027) "></path>
                            <path d="M10.572444,5.96363058 C12.3204385,5.96922118 13.7640628,7.39744679 13.7145018,9.1219444 C13.643099,11.6064334 14.4542251,13.4442864 16.1532435,14.6987199 C16.4037766,14.8836956 16.4569839,15.2341312 16.2720852,15.4814396 C16.0871865,15.728748 15.7341993,15.7792787 15.4836661,15.5943029 C13.473103,14.109847 12.5058834,11.918317 12.5873708,9.0829293 C12.618539,7.99842056 11.695871,7.08559438 10.5760381,7.08202495 C9.38369614,7.0782244 8.50470247,7.91505651 8.31553907,9.40973583 C8.21939522,10.1694188 8.4720451,11.3361922 9.03510604,12.9371996 L9.13181712,13.2080595 C9.21222479,13.4300419 9.29763426,13.6587884 9.39127465,13.9034981 L10.4150406,16.501898 C10.525443,16.7913611 10.3789217,17.1132851 10.0877763,17.2209353 C9.79663077,17.3285855 9.4711119,17.181197 9.36070951,16.8917339 L8.54011201,14.8169863 L8.33683305,14.2930502 C8.24112914,14.0429278 8.15359281,13.8084709 8.07091311,13.5802161 L7.87542303,13.0248811 C7.32300304,11.4048198 7.07900847,10.1935259 7.19671596,9.26345724 C7.45397815,7.23069367 8.79082393,5.95797065 10.572444,5.96363058 Z" id="Path" transform="translate(11.775020, 11.609894) rotate(-19.000000) translate(-11.775020, -11.609894) "></path>
                            <path d="M9.80403131,9.70526331 C10.1020782,9.61491466 10.4177004,9.78078823 10.5089934,10.0757523 C11.1173946,12.0414742 12.3088183,13.4357992 14.5495816,15.1009287 C14.798849,15.2861613 14.84919,15.6363031 14.6620214,15.8829923 C14.4748529,16.1296815 14.1210516,16.1795018 13.8717841,15.9942692 C11.4576287,14.2002907 10.1207268,12.6357123 9.42967017,10.4029337 C9.33837725,10.1079696 9.50598444,9.79561196 9.80403131,9.70526331 Z" id="Path"></path>
                        </g>
                    </g>
                </g>
            </g>
        </g>
    </g>
</svg>